# xmcd
#
# Track frame offsets:
#	150
#	16234
#	34237
#	48965
#	67833
#	85848
#	103964
#	122476
#	137654
#	156761
#
# Disc length: 2332 seconds
#
# Revision: 3
# Processed by: cddbd v1.5.2PL0 Copyright (c) Steve Scherf et al.
# Submitted via: EasyCDDAExtractor 15.3.0.1
#
DISCID=79091a0a
DTITLE=Noelia - 40 Grados
DYEAR=2006
DGENRE=Latin
TTITLE0=Dinamita
TTITLE1=Como Duele (Barrera De Amor)
TTITLE2=40 Grados
TTITLE3=Lluvia
TTITLE4=Moneda Falsa
TTITLE5=Enamorada De Ti
TTITLE6=Fue Amor
TTITLE7=Geografia
TTITLE8=Sentimiento Nuevo
TTITLE9=Niña Solitaria
EXTD=
EXTT0=
EXTT1=
EXTT2=
EXTT3=
EXTT4=
EXTT5=
EXTT6=
EXTT7=
EXTT8=
EXTT9=
PLAYORDER=
